<svg id="visual" viewBox="0 0 960 540" width="960" height="540" xmlns="http://www.w3.org/2000/svg" xmlns:xlink="http://www.w3.org/1999/xlink" version="1.1"><rect x="0" y="0" width="960" height="540" fill="#272222"></rect><path d="M0 195L22.8 195C45.7 195 91.3 195 137 189.7C182.7 184.3 228.3 173.7 274 173C319.7 172.3 365.3 181.7 411.2 180.3C457 179 503 167 548.8 170.5C594.7 174 640.3 193 686 204C731.7 215 777.3 218 823 215.7C868.7 213.3 914.3 205.7 937.2 201.8L960 198L960 0L937.2 0C914.3 0 868.7 0 823 0C777.3 0 731.7 0 686 0C640.3 0 594.7 0 548.8 0C503 0 457 0 411.2 0C365.3 0 319.7 0 274 0C228.3 0 182.7 0 137 0C91.3 0 45.7 0 22.8 0L0 0Z" fill="#fab469"></path><path d="M0 162L22.8 153C45.7 144 91.3 126 137 125.7C182.7 125.3 228.3 142.7 274 150.8C319.7 159 365.3 158 411.2 155.2C457 152.3 503 147.7 548.8 147.7C594.7 147.7 640.3 152.3 686 153.3C731.7 154.3 777.3 151.7 823 147C868.7 142.3 914.3 135.7 937.2 132.3L960 129L960 0L937.2 0C914.3 0 868.7 0 823 0C777.3 0 731.7 0 686 0C640.3 0 594.7 0 548.8 0C503 0 457 0 411.2 0C365.3 0 319.7 0 274 0C228.3 0 182.7 0 137 0C91.3 0 45.7 0 22.8 0L0 0Z" fill="#fb9947"></path><path d="M0 134L22.8 134.7C45.7 135.3 91.3 136.7 137 129.7C182.7 122.7 228.3 107.3 274 100.5C319.7 93.7 365.3 95.3 411.2 94.5C457 93.7 503 90.3 548.8 97C594.7 103.7 640.3 120.3 686 123.2C731.7 126 777.3 115 823 115.5C868.7 116 914.3 128 937.2 134L960 140L960 0L937.2 0C914.3 0 868.7 0 823 0C777.3 0 731.7 0 686 0C640.3 0 594.7 0 548.8 0C503 0 457 0 411.2 0C365.3 0 319.7 0 274 0C228.3 0 182.7 0 137 0C91.3 0 45.7 0 22.8 0L0 0Z" fill="#fc7b29"></path><path d="M0 98L22.8 93.2C45.7 88.3 91.3 78.7 137 71C182.7 63.3 228.3 57.7 274 62.5C319.7 67.3 365.3 82.7 411.2 91.3C457 100 503 102 548.8 97.8C594.7 93.7 640.3 83.3 686 79C731.7 74.7 777.3 76.3 823 76.8C868.7 77.3 914.3 76.7 937.2 76.3L960 76L960 0L937.2 0C914.3 0 868.7 0 823 0C777.3 0 731.7 0 686 0C640.3 0 594.7 0 548.8 0C503 0 457 0 411.2 0C365.3 0 319.7 0 274 0C228.3 0 182.7 0 137 0C91.3 0 45.7 0 22.8 0L0 0Z" fill="#fe550e"></path><path d="M0 58L22.8 53.8C45.7 49.7 91.3 41.3 137 38.5C182.7 35.7 228.3 38.3 274 42C319.7 45.7 365.3 50.3 411.2 52.3C457 54.3 503 53.7 548.8 48.5C594.7 43.3 640.3 33.7 686 33C731.7 32.3 777.3 40.7 823 40.3C868.7 40 914.3 31 937.2 26.5L960 22L960 0L937.2 0C914.3 0 868.7 0 823 0C777.3 0 731.7 0 686 0C640.3 0 594.7 0 548.8 0C503 0 457 0 411.2 0C365.3 0 319.7 0 274 0C228.3 0 182.7 0 137 0C91.3 0 45.7 0 22.8 0L0 0Z" fill="#ff0000"></path></svg>