<svg id="visual" viewBox="0 0 960 540" width="960" height="540" xmlns="http://www.w3.org/2000/svg" xmlns:xlink="http://www.w3.org/1999/xlink" version="1.1"><rect x="0" y="0" width="960" height="540" fill="#272222"></rect><path d="M0 242L17.8 239.5C35.7 237 71.3 232 106.8 225.8C142.3 219.7 177.7 212.3 213.2 204.3C248.7 196.3 284.3 187.7 320 191C355.7 194.3 391.3 209.7 426.8 208.8C462.3 208 497.7 191 533.2 187C568.7 183 604.3 192 640 193.2C675.7 194.3 711.3 187.7 746.8 193C782.3 198.3 817.7 215.7 853.2 224.7C888.7 233.7 924.3 234.3 942.2 234.7L960 235L960 0L942.2 0C924.3 0 888.7 0 853.2 0C817.7 0 782.3 0 746.8 0C711.3 0 675.7 0 640 0C604.3 0 568.7 0 533.2 0C497.7 0 462.3 0 426.8 0C391.3 0 355.7 0 320 0C284.3 0 248.7 0 213.2 0C177.7 0 142.3 0 106.8 0C71.3 0 35.7 0 17.8 0L0 0Z" fill="#272222"></path><path d="M0 151L17.8 150.7C35.7 150.3 71.3 149.7 106.8 151.5C142.3 153.3 177.7 157.7 213.2 161C248.7 164.3 284.3 166.7 320 162.8C355.7 159 391.3 149 426.8 145.5C462.3 142 497.7 145 533.2 144.7C568.7 144.3 604.3 140.7 640 140.5C675.7 140.3 711.3 143.7 746.8 154.2C782.3 164.7 817.7 182.3 853.2 179.7C888.7 177 924.3 154 942.2 142.5L960 131L960 0L942.2 0C924.3 0 888.7 0 853.2 0C817.7 0 782.3 0 746.8 0C711.3 0 675.7 0 640 0C604.3 0 568.7 0 533.2 0C497.7 0 462.3 0 426.8 0C391.3 0 355.7 0 320 0C284.3 0 248.7 0 213.2 0C177.7 0 142.3 0 106.8 0C71.3 0 35.7 0 17.8 0L0 0Z" fill="#242020"></path><path d="M0 153L17.8 149.7C35.7 146.3 71.3 139.7 106.8 131.2C142.3 122.7 177.7 112.3 213.2 115.3C248.7 118.3 284.3 134.7 320 138.5C355.7 142.3 391.3 133.7 426.8 124.7C462.3 115.7 497.7 106.3 533.2 110C568.7 113.7 604.3 130.3 640 130.2C675.7 130 711.3 113 746.8 108.2C782.3 103.3 817.7 110.7 853.2 119.8C888.7 129 924.3 140 942.2 145.5L960 151L960 0L942.2 0C924.3 0 888.7 0 853.2 0C817.7 0 782.3 0 746.8 0C711.3 0 675.7 0 640 0C604.3 0 568.7 0 533.2 0C497.7 0 462.3 0 426.8 0C391.3 0 355.7 0 320 0C284.3 0 248.7 0 213.2 0C177.7 0 142.3 0 106.8 0C71.3 0 35.7 0 17.8 0L0 0Z" fill="#211e1e"></path><path d="M0 61L17.8 69.5C35.7 78 71.3 95 106.8 94.2C142.3 93.3 177.7 74.7 213.2 72.8C248.7 71 284.3 86 320 92.3C355.7 98.7 391.3 96.3 426.8 97.5C462.3 98.7 497.7 103.3 533.2 103.3C568.7 103.3 604.3 98.7 640 93.5C675.7 88.3 711.3 82.7 746.8 84.7C782.3 86.7 817.7 96.3 853.2 97.3C888.7 98.3 924.3 90.7 942.2 86.8L960 83L960 0L942.2 0C924.3 0 888.7 0 853.2 0C817.7 0 782.3 0 746.8 0C711.3 0 675.7 0 640 0C604.3 0 568.7 0 533.2 0C497.7 0 462.3 0 426.8 0C391.3 0 355.7 0 320 0C284.3 0 248.7 0 213.2 0C177.7 0 142.3 0 106.8 0C71.3 0 35.7 0 17.8 0L0 0Z" fill="#1e1c1c"></path><path d="M0 18L17.8 23.2C35.7 28.3 71.3 38.7 106.8 41C142.3 43.3 177.7 37.7 213.2 39.7C248.7 41.7 284.3 51.3 320 51.7C355.7 52 391.3 43 426.8 41.3C462.3 39.7 497.7 45.3 533.2 45.8C568.7 46.3 604.3 41.7 640 45C675.7 48.3 711.3 59.7 746.8 56.7C782.3 53.7 817.7 36.3 853.2 30.3C888.7 24.3 924.3 29.7 942.2 32.3L960 35L960 0L942.2 0C924.3 0 888.7 0 853.2 0C817.7 0 782.3 0 746.8 0C711.3 0 675.7 0 640 0C604.3 0 568.7 0 533.2 0C497.7 0 462.3 0 426.8 0C391.3 0 355.7 0 320 0C284.3 0 248.7 0 213.2 0C177.7 0 142.3 0 106.8 0C71.3 0 35.7 0 17.8 0L0 0Z" fill="#1c1a1a"></path></svg>